<svg xmlns="http://www.w3.org/2000/svg" width="17.463" height="16.298" viewBox="0 0 17.463 16.298">
  <g id="chat" transform="translate(0 0)">
    <path id="Path_133380" data-name="Path 133380" d="M11.512,20.383A6.068,6.068,0,0,0,0,23.042a5.981,5.981,0,0,0,.578,2.584L.011,28.469a.519.519,0,0,0,.609.61L3.5,28.51a5.961,5.961,0,0,0,1.2.42A7.09,7.09,0,0,1,11.512,20.383Z" transform="translate(0 -16.996)" fill="#fff"/>
    <path id="Path_133381" data-name="Path 133381" d="M173.039,153.633a6.021,6.021,0,0,0,.26-.64h-.019a6.053,6.053,0,0,0-5.444-7.983h0a6.046,6.046,0,1,0-.29,12.086,5.98,5.98,0,0,0,2.576-.579c3.151.623,2.905.579,2.978.579a.519.519,0,0,0,.508-.62Z" transform="translate(-156.155 -140.797)" fill="#fff"/>
  </g>
</svg>
