<svg id="adjust" xmlns="http://www.w3.org/2000/svg" width="23.284" height="22.119" viewBox="0 0 23.284 22.119">
  <path id="Path_126834" data-name="Path 126834" d="M.431,5.093H1.725V6.861a.436.436,0,0,0,.431.442H7.33a.436.436,0,0,0,.431-.442V5.093H22.852a.442.442,0,0,0,0-.884H7.761V2.442A.436.436,0,0,0,7.33,2H2.156a.436.436,0,0,0-.431.442V4.21H.431a.442.442,0,0,0,0,.884Zm2.156-2.21H6.9V6.419H2.587Z" transform="translate(0 -2)" fill="#fff"/>
  <path id="Path_126835" data-name="Path 126835" d="M22.852,23.21H14.66V21.442A.436.436,0,0,0,14.229,21H9.055a.436.436,0,0,0-.431.442V23.21H.431a.442.442,0,0,0,0,.884H8.624v1.768a.436.436,0,0,0,.431.442h5.174a.436.436,0,0,0,.431-.442V24.093h8.192a.442.442,0,0,0,0-.884ZM13.8,25.419H9.486V21.884H13.8Z" transform="translate(0 -12.592)" fill="#fff"/>
  <path id="Path_126836" data-name="Path 126836" d="M22.852,42.21H21.559V40.442A.436.436,0,0,0,21.128,40H15.954a.436.436,0,0,0-.431.442V42.21H.431a.442.442,0,0,0,0,.884H15.522v1.768a.436.436,0,0,0,.431.442h5.174a.436.436,0,0,0,.431-.442V43.093h1.294a.442.442,0,0,0,0-.884ZM20.7,44.419H16.385V40.884H20.7Z" transform="translate(0 -23.184)" fill="#fff"/>
</svg>
