<svg xmlns="http://www.w3.org/2000/svg" width="46" height="46.001" viewBox="0 0 46 46.001">
  <g id="Group_20625" data-name="Group 20625" transform="translate(0.227 0.375)">
    <path id="Subtraction_9" data-name="Subtraction 9" d="M24,46H22A21.981,21.981,0,0,1,0,24V22A21.982,21.982,0,0,1,22,0h2A21.982,21.982,0,0,1,46,22v2A21.981,21.981,0,0,1,24,46ZM19.692,17.847c-1.639,0-5.892,1.2-5.892,6.684,0,3.357,2.762,9.95,6.1,9.968h.022a6.426,6.426,0,0,0,2.213-.5,4.266,4.266,0,0,1,1.278-.335,3.778,3.778,0,0,1,1.613.375l.006,0a4.42,4.42,0,0,0,1.805.423c3.177,0,5.364-5.693,5.364-5.958,0-.405-.319-.591-.628-.77a3.744,3.744,0,0,1-2.162-3.462A4.019,4.019,0,0,1,31.4,20.962l.5-.363-.343-.5a5.671,5.671,0,0,0-4.709-2.3h-.006a7.5,7.5,0,0,0-2.745.642,4.02,4.02,0,0,1-.911.286,5.084,5.084,0,0,1-1.27-.353A6.991,6.991,0,0,0,19.692,17.847Zm7.48-5.2a4.325,4.325,0,0,0-3.04,1.631A4.2,4.2,0,0,0,23,17.555c.059,0,.123.005.189.005a3.66,3.66,0,0,0,2.611-1.177A5.078,5.078,0,0,0,27.172,12.649Z" transform="translate(-0.227 -0.374)" fill="#d1d1d1"/>
  </g>
</svg>
