<svg xmlns="http://www.w3.org/2000/svg" width="24.884" height="24.884" viewBox="0 0 24.884 24.884">
  <g id="Group_20615" data-name="Group 20615" transform="translate(0.8 0.8)">
    <g id="right-arrow_1_" data-name="right-arrow (1)" transform="translate(17.463 5.821) rotate(90)">
      <g id="Group_20612" data-name="Group 20612" transform="translate(0 0)">
        <path id="Path_126851" data-name="Path 126851" d="M11.456,4.749,7.251.2a.605.605,0,0,0-.9,0L5.969.614a.714.714,0,0,0-.186.487.728.728,0,0,0,.186.493L8.421,4.254H.629A.648.648,0,0,0,0,4.932v.584a.676.676,0,0,0,.629.708h7.82L5.969,8.9a.723.723,0,0,0,0,.968l.382.412a.605.605,0,0,0,.9,0l4.2-4.548a.736.736,0,0,0,0-.978Z" fill="#fff"/>
      </g>
    </g>
    <g id="confirm">
      <g id="Group_20614" data-name="Group 20614" transform="translate(0 0)">
        <g id="Group_20613" data-name="Group 20613">
          <path id="Path_126852" data-name="Path 126852" d="M17.135,1.3a8.017,8.017,0,0,0-13.5,5.761,7.976,7.976,0,0,0,8,7.929,8.047,8.047,0,0,0,7.485-5.114,1.824,1.824,0,0,1,2.345-1.044,1.8,1.8,0,0,1,1.054,2.324,11.7,11.7,0,0,1-10.884,7.436A11.6,11.6,0,0,1,0,7.056,11.593,11.593,0,0,1,11.633-4.475a11.812,11.812,0,0,1,8.014,3.183V-3.438A1.279,1.279,0,0,1,20.935-4.7h1.079a1.263,1.263,0,0,1,1.27,1.257C23.284,3.19,17.213,1.368,17.135,1.3Z" transform="translate(0 4.696)" fill="#fff" stroke="#f05e22" stroke-width="1.6"/>
        </g>
      </g>
    </g>
  </g>
</svg>
