<svg xmlns="http://www.w3.org/2000/svg" width="20.64" height="24.08" viewBox="0 0 20.64 24.08">
  <g id="Group_23349" data-name="Group 23349" transform="translate(0)">
    <g id="notification" transform="translate(0)">
      <g id="Group_9200" data-name="Group 9200" transform="translate(0 2.717)">
        <g id="Group_9199" data-name="Group 9199">
          <path id="Path_26179" data-name="Path 26179" d="M63.224,92.146l-1.773-2.988a8.959,8.959,0,0,1-1.25-4.566V81.975a7.224,7.224,0,1,0-14.447,0v2.617a8.96,8.96,0,0,1-1.25,4.566l-1.773,2.988a.527.527,0,0,0-.007.525.517.517,0,0,0,.45.265H62.781a.517.517,0,0,0,.45-.265A.527.527,0,0,0,63.224,92.146Zm-19.139-.254,1.3-2.2a10,10,0,0,0,1.4-5.1V81.975a6.192,6.192,0,1,1,12.383,0v2.617a10.012,10.012,0,0,0,1.4,5.1l1.3,2.2Z" transform="translate(-42.657 -74.667)" fill="#fff"/>
        </g>
      </g>
      <g id="Group_9202" data-name="Group 9202" transform="translate(8.258)">
        <g id="Group_9201" data-name="Group 9201">
          <path id="Path_26180" data-name="Path 26180" d="M215.4,0a2.064,2.064,0,0,0-2.062,2.062V3.084a.516.516,0,0,0,1.031,0V2.062a1.031,1.031,0,1,1,2.062,0V3.084a.516.516,0,0,0,1.031,0V2.062A2.064,2.064,0,0,0,215.4,0Z" transform="translate(-213.333 0)" fill="#fff"/>
        </g>
      </g>
      <g id="Group_9204" data-name="Group 9204" transform="translate(7.742 19.956)">
        <g id="Group_9203" data-name="Group 9203">
          <path id="Path_26181" data-name="Path 26181" d="M207.476,426.934a.516.516,0,0,0-.891.522,1.547,1.547,0,1,1-2.679,0,.516.516,0,0,0-.891-.522,2.579,2.579,0,1,0,4.461,0Z" transform="translate(-202.666 -426.68)" fill="#fff"/>
        </g>
      </g>
      <path id="Path_133379" data-name="Path 133379" d="M27.075,174.653l2.016.3,1.169-1.129L30,172.536l-1.733-.161H26.672Z" transform="translate(-18.065 -151.681)" fill="#fff"/>
    </g>
    <path id="Path_133377" data-name="Path 133377" d="M29,174.57s-3.241.608-4.548,2.918-.679,6.321-.679,6.321l-1.193,4.455L20.6,191.592H39.623a26.833,26.833,0,0,1-2.8-6.455,17.084,17.084,0,0,1-.254-5.631,6.447,6.447,0,0,0-2.463-3.417A13.487,13.487,0,0,0,29,174.57Z" transform="translate(-19.827 -171.255)" fill="#fff"/>
    <path id="Path_133378" data-name="Path 133378" d="M26.969,174.935l2.62.161-.141-1.754-1.27-.967-.967.867Z" transform="translate(-17.979 -171.891)" fill="#fff"/>
  </g>
</svg>
