<svg xmlns="http://www.w3.org/2000/svg" width="20.955" height="20.955" viewBox="0 0 20.955 20.955">
  <g id="communications" transform="translate(0)">
    <path id="Path_127018" data-name="Path 127018" d="M12.56,17.612v4.344a.7.7,0,0,1-1.268.416L8.75,18.914Z" transform="translate(0.869 -1.704)" fill="#fff"/>
    <path id="Path_127019" data-name="Path 127019" d="M.275.126A.634.634,0,0,1,.958.077L20.6,10.737a.688.688,0,0,1,.35.655.677.677,0,0,1-.441.592l-5.461,1.94L3.42,3.591l9,11.267L3.267,18.109a.647.647,0,0,1-.211.036.639.639,0,0,1-.341-.1.686.686,0,0,1-.307-.481L.007.781A.694.694,0,0,1,.275.126Z" transform="translate(0 0)" fill="#fff"/>
  </g>
</svg>
