<svg id="translate" xmlns="http://www.w3.org/2000/svg" width="36" height="36" viewBox="0 0 36 36">
  <path id="Path_57564" data-name="Path 57564" d="M-4.905-20.059a22.325,22.325,0,0,0-3.088,1,9.13,9.13,0,0,0-1.989,1.1,3.551,3.551,0,0,0-1.061,1.207,2.937,2.937,0,0,0-.312,1.315,2.709,2.709,0,0,0,.2,1.032,2.142,2.142,0,0,0,.624.841,3.092,3.092,0,0,0,1.1.562,5.662,5.662,0,0,0,1.63.2,8.912,8.912,0,0,0,1.664-.158,12.416,12.416,0,0,0,1.689-.449v1.282a12.174,12.174,0,0,1-1.741.462,9.315,9.315,0,0,1-1.655.146,7.214,7.214,0,0,1-2.22-.3,4.221,4.221,0,0,1-1.5-.812,3.1,3.1,0,0,1-.851-1.19,3.876,3.876,0,0,1-.269-1.444,4.436,4.436,0,0,1,.107-.953,3.842,3.842,0,0,1,.368-.978,5.055,5.055,0,0,1,.689-.974,6.142,6.142,0,0,1,1.074-.936,10.2,10.2,0,0,1,1.523-.866A15.057,15.057,0,0,1-6.9-20.733V-20.8q-.428-.133-.757-.266t-.676-.237a5.443,5.443,0,0,0-.77-.166,7.362,7.362,0,0,0-1.048-.062,7.557,7.557,0,0,0-1.189.087,7.62,7.62,0,0,0-.967.212V-22.54a7.573,7.573,0,0,1,1.039-.246,7.461,7.461,0,0,1,1.236-.1,5.666,5.666,0,0,1,1.082.092,6.468,6.468,0,0,1,.864.229q.4.137.753.3t.753.3a6.448,6.448,0,0,0,.864.237,5.819,5.819,0,0,0,1.082.1Zm-1.976,4.72H-8.464v-1.507h1.582Z" transform="translate(36.014 37.405)" fill="#fff"/>
  <path id="Path_57562" data-name="Path 57562" d="M31.782,6.477l-13.36,0L16.184.007H4.219A4.223,4.223,0,0,0,0,4.226V25.319a4.223,4.223,0,0,0,4.219,4.219H16.79L19.027,36l12.75,0A4.223,4.223,0,0,0,36,31.789L36,10.7a4.223,4.223,0,0,0-4.218-4.219ZM2.109,25.319V4.226A2.112,2.112,0,0,1,4.219,2.116H14.682l8.762,25.312H4.219A2.112,2.112,0,0,1,2.109,25.319Zm20.624,4.219-2.589,3.244-1.122-3.244Zm11.154,2.251a2.112,2.112,0,0,1-2.11,2.109l-9.824,0,4.158-5.209-6.959-20.1,12.629,0a2.112,2.112,0,0,1,2.109,2.11Z" transform="translate(0 -0.007)" fill="#fff"/>
  <path id="Path_57563" data-name="Path 57563" d="M65.534,127.092v1.9h3.511a3.637,3.637,0,1,1-1-3.583l1.309-1.374a5.534,5.534,0,1,0,1.718,4.008v-.949H65.534Z" transform="translate(-56.205 -113.444)" fill="#fff"/>
</svg>
