<svg xmlns="http://www.w3.org/2000/svg" width="20.64" height="20.64" viewBox="0 0 20.64 20.64">
  <g id="chat_2_" data-name="chat (2)" opacity="0.5">
    <g id="Group_21730" data-name="Group 21730" transform="translate(0)">
      <g id="Group_21729" data-name="Group 21729" transform="translate(0)">
        <path id="Path_127021" data-name="Path 127021" d="M13.734,0c-.006.006-.017.006-.034.006A10.252,10.252,0,0,0,3.366,10.153a9.965,9.965,0,0,0,2.247,6.288l-1.5,3.429a.547.547,0,0,0,.293.724.582.582,0,0,0,.321.039l5.513-.951a10.1,10.1,0,0,0,3.435.586A10.252,10.252,0,0,0,24.006,10.12,10.193,10.193,0,0,0,13.734,0Zm-.056,19.167A9.188,9.188,0,0,1,10.5,18.6a.549.549,0,0,0-.3-.028l-4.64.8,1.228-2.8a.548.548,0,0,0-.09-.581,8.854,8.854,0,0,1-2.2-5.834,9.136,9.136,0,0,1,9.208-9.042,9.075,9.075,0,0,1,9.18,8.981v.033A9.138,9.138,0,0,1,13.678,19.167Z" transform="translate(-3.366)" fill="#fff"/>
      </g>
    </g>
  </g>
</svg>
