<svg xmlns="http://www.w3.org/2000/svg" width="21.639" height="21.64" viewBox="0 0 21.639 21.64">
  <path id="settings_1_" data-name="settings (1)" d="M19.507,8.079l-1.617-.206A8.127,8.127,0,0,0,17.4,6.692l1-1.286a1.278,1.278,0,0,0-.1-1.7L16.94,2.35a1.282,1.282,0,0,0-1.707-.109l-1.284,1a8.1,8.1,0,0,0-1.182-.489l-.206-1.614A1.288,1.288,0,0,0,11.283,0H9.357A1.288,1.288,0,0,0,8.079,1.133L7.873,2.749a8,8,0,0,0-1.182.489l-1.285-1a1.279,1.279,0,0,0-1.7.1L2.35,3.7A1.282,1.282,0,0,0,2.24,5.407l1,1.285a8.032,8.032,0,0,0-.489,1.182l-1.614.206A1.288,1.288,0,0,0,0,9.357v1.926a1.288,1.288,0,0,0,1.133,1.278l1.617.206a8.127,8.127,0,0,0,.489,1.182l-1,1.286a1.278,1.278,0,0,0,.1,1.7L3.7,18.29a1.283,1.283,0,0,0,1.707.108l1.285-1a7.94,7.94,0,0,0,1.182.489L8.079,19.5A1.288,1.288,0,0,0,9.357,20.64h1.926a1.288,1.288,0,0,0,1.278-1.133l.206-1.617a8.127,8.127,0,0,0,1.182-.489l1.286,1a1.278,1.278,0,0,0,1.7-.1L18.29,16.94a1.281,1.281,0,0,0,.109-1.707l-1-1.285a7.94,7.94,0,0,0,.489-1.182l1.613-.206a1.288,1.288,0,0,0,1.135-1.278V9.357a1.286,1.286,0,0,0-1.132-1.278ZM10.32,14.62a4.3,4.3,0,1,1,4.3-4.3,4.3,4.3,0,0,1-4.3,4.3Z" transform="translate(0.5 0.5)" fill="none" stroke="#fff" stroke-width="1" opacity="0.5"/>
</svg>
