<svg xmlns="http://www.w3.org/2000/svg" width="23.225" height="21.949" viewBox="0 0 23.225 21.949">
  <g id="home-run" transform="translate(0.522 0.572)">
    <g id="Group_11148" data-name="Group 11148">
      <g id="Group_11147" data-name="Group 11147">
        <path id="Path_31420" data-name="Path 31420" d="M21.809,21.951l-9.952-8.98a1.141,1.141,0,0,0-1.532,0L.372,21.951A1.112,1.112,0,0,0,.078,23.19a1.13,1.13,0,0,0,1.061.72h1.59v9a.649.649,0,0,0,.652.646H8.836a.649.649,0,0,0,.652-.646V27.444h3.206v5.463a.649.649,0,0,0,.652.646H18.8a.649.649,0,0,0,.652-.646v-9h1.59a1.13,1.13,0,0,0,1.061-.72A1.112,1.112,0,0,0,21.809,21.951Z" transform="translate(0 -12.675)" fill="none" stroke="#97aed4" stroke-width="1"/>
      </g>
    </g>
    <g id="Group_11150" data-name="Group 11150" transform="translate(14.9 1.302)">
      <g id="Group_11149" data-name="Group 11149" transform="translate(0 0)">
        <path id="Path_31421" data-name="Path 31421" d="M348.355,42.73h-4.382l5.035,4.578V43.382A.653.653,0,0,0,348.355,42.73Z" transform="translate(-343.973 -42.73)" fill="none" stroke="#97aed4" stroke-width="1"/>
      </g>
    </g>
  </g>
</svg>
