<svg xmlns="http://www.w3.org/2000/svg" width="16" height="16" viewBox="0 0 16 16">
  <g id="Group_23253" data-name="Group 23253" transform="translate(-0.179 -0.239)">
    <rect id="Rectangle_5827" data-name="Rectangle 5827" width="16" height="16" rx="8" transform="translate(0.179 0.239)" fill="#4fbf4c"/>
    <g id="whatsapp_1_" data-name="whatsapp (1)" transform="translate(4.119 4.388)">
      <g id="Group_23140" data-name="Group 23140">
        <path id="Path_133394" data-name="Path 133394" d="M3.762,0h0A3.759,3.759,0,0,0,.716,5.966l-.469,1.4L1.693,6.9A3.761,3.761,0,1,0,3.762,0ZM5.951,5.311a1.061,1.061,0,0,1-.738.531c-.2.042-.453.075-1.317-.283A4.712,4.712,0,0,1,2.023,3.905a2.148,2.148,0,0,1-.447-1.134,1.2,1.2,0,0,1,.385-.915.546.546,0,0,1,.385-.135c.047,0,.088,0,.126,0,.11,0,.166.011.239.186.091.219.312.758.338.814a.224.224,0,0,1,.016.2.65.65,0,0,1-.122.173c-.055.064-.108.113-.164.181s-.108.124-.044.234a3.338,3.338,0,0,0,.61.758,2.765,2.765,0,0,0,.882.544.238.238,0,0,0,.265-.042,4.55,4.55,0,0,0,.294-.389.21.21,0,0,1,.27-.082c.1.035.639.3.749.356s.183.082.21.128A.937.937,0,0,1,5.951,5.311Z" fill="#fff"/>
      </g>
    </g>
  </g>
</svg>
