<svg xmlns="http://www.w3.org/2000/svg" width="27" height="27.002" viewBox="0 0 27 27.002">
  <path id="Subtraction_15" data-name="Subtraction 15" d="M13.5,27A13.5,13.5,0,0,1,3.957,3.955,13.5,13.5,0,0,1,23.049,23.048,13.411,13.411,0,0,1,13.5,27ZM11.967,13.56,7.707,17.911a1.1,1.1,0,0,0,.485.116H18.813a1.1,1.1,0,0,0,.485-.116L15.037,13.56l-1.293,1.27a.373.373,0,0,1-.534,0l-1.243-1.27Zm7.876-4.68-4.351,4.243,4.351,4.243a1.1,1.1,0,0,0,.116-.483V9.364A1.091,1.091,0,0,0,19.843,8.88Zm-12.681,0a1.091,1.091,0,0,0-.116.483v7.519a1.1,1.1,0,0,0,.116.483l4.351-4.243Zm1.03-.661a1.1,1.1,0,0,0-.485.116l5.77,5.893,1.293-1.27L19.3,8.335a1.1,1.1,0,0,0-.485-.116Z" transform="translate(-0.003 -0.001)" fill="#f05e22"/>
</svg>
