<svg id="instagram" xmlns="http://www.w3.org/2000/svg" width="18.627" height="18.627" viewBox="0 0 18.627 18.627">
  <path id="Path_535" data-name="Path 535" d="M12.806,0H5.821A5.822,5.822,0,0,0,0,5.821v6.985a5.822,5.822,0,0,0,5.821,5.821h6.985a5.822,5.822,0,0,0,5.821-5.821V5.821A5.822,5.822,0,0,0,12.806,0Zm4.075,12.806a4.079,4.079,0,0,1-4.075,4.075H5.821a4.079,4.079,0,0,1-4.075-4.075V5.821A4.079,4.079,0,0,1,5.821,1.746h6.985a4.079,4.079,0,0,1,4.075,4.075Z" fill="#f05e22"/>
  <path id="Path_536" data-name="Path 536" d="M132.824,128a4.667,4.667,0,1,0,4.824,4.664A4.746,4.746,0,0,0,132.824,128Zm0,7.579a2.917,2.917,0,1,1,3.015-2.915A2.97,2.97,0,0,1,132.824,135.579Z" transform="translate(-123.51 -123.351)" fill="#f05e22"/>
  <circle id="Ellipse_54" data-name="Ellipse 54" cx="0.643" cy="0.643" r="0.643" transform="translate(13.664 3.678)" fill="#f05e22"/>
</svg>
