<svg xmlns="http://www.w3.org/2000/svg" width="26.995" height="26.996" viewBox="0 0 26.995 26.996">
  <path id="Subtraction_16" data-name="Subtraction 16" d="M13.5,27A13.5,13.5,0,0,1,3.956,3.955,13.5,13.5,0,0,1,23.044,23.044,13.409,13.409,0,0,1,13.5,27ZM10.1,7.631a2.76,2.76,0,0,0-.588.084,3.24,3.24,0,0,0-.571.175,2.247,2.247,0,0,0-.884,1.017,3.245,3.245,0,0,0-.426,1.551,3.164,3.164,0,0,0,.03.437,3.441,3.441,0,0,0,.1.48c.049.174.089.307.121.4.018.051.072.2.171.463.082.22.133.357.149.409A7.675,7.675,0,0,0,8.9,14.1a12.441,12.441,0,0,0,1.8,2.205,12.441,12.441,0,0,0,2.2,1.8,7.617,7.617,0,0,0,1.459.692c.053.017.2.072.409.15.233.087.38.141.463.17s.222.072.4.122a3.639,3.639,0,0,0,.479.1,3.338,3.338,0,0,0,.438.029,3.249,3.249,0,0,0,1.551-.425,2.243,2.243,0,0,0,1.016-.884,3.212,3.212,0,0,0,.175-.572,2.745,2.745,0,0,0,.084-.588.461.461,0,0,0-.025-.175c-.033-.1-.246-.248-.634-.442-.1-.056-.236-.133-.45-.249s-.386-.212-.529-.293c-.188-.106-.326-.186-.446-.258l-.138-.1-.07-.049a2.4,2.4,0,0,0-.3-.179.552.552,0,0,0-.238-.059.694.694,0,0,0-.417.238,4.139,4.139,0,0,0-.459.517,5.085,5.085,0,0,1-.441.517.638.638,0,0,1-.383.238.575.575,0,0,1-.188-.041c-.084-.031-.139-.056-.171-.071s-.11-.061-.2-.117-.148-.09-.158-.1a8.782,8.782,0,0,1-1.959-1.45,8.806,8.806,0,0,1-1.45-1.959c-.006-.011-.038-.064-.1-.158s-.1-.159-.117-.2-.041-.09-.07-.171a.566.566,0,0,1-.042-.188.639.639,0,0,1,.238-.383,5.1,5.1,0,0,1,.517-.442,4.118,4.118,0,0,0,.517-.458.694.694,0,0,0,.238-.417.546.546,0,0,0-.059-.238,2.349,2.349,0,0,0-.179-.3l-.146-.209c-.087-.144-.174-.294-.258-.445s-.174-.311-.292-.529c-.1-.19-.187-.342-.25-.45-.193-.387-.342-.6-.441-.634A.461.461,0,0,0,10.1,7.631Z" transform="translate(-0.003 -0.002)" fill="#f05e22"/>
</svg>
