<svg xmlns="http://www.w3.org/2000/svg" width="23.284" height="18.627" viewBox="0 0 23.284 18.627">
  <path id="Path_537" data-name="Path 537" d="M173.825,149.5a9.917,9.917,0,0,1-2.358.657c.382-.064.943-.735,1.165-1a4.261,4.261,0,0,0,.783-1.377c0-.041.038-.087,0-.119a.154.154,0,0,0-.127,0,12.062,12.062,0,0,1-2.792,1.042.192.192,0,0,1-.193-.051,2.431,2.431,0,0,0-.245-.243,4.8,4.8,0,0,0-3.41-1.125,5.074,5.074,0,0,0-3.585,1.8,4.645,4.645,0,0,0-.943,1.837,4.879,4.879,0,0,0-.047,1.956c0,.106,0,.124-.1.106a15.08,15.08,0,0,1-9.608-4.757c-.108-.129-.17-.129-.264,0a4.647,4.647,0,0,0,.83,5.6,7.678,7.678,0,0,0,.59.505,5.024,5.024,0,0,1-1.854-.505c-.109-.069-.165-.028-.175.1a2.586,2.586,0,0,0,.028.533,4.825,4.825,0,0,0,3.038,3.824,3.136,3.136,0,0,0,.613.184,5.738,5.738,0,0,1-1.816.055c-.132-.027-.184.037-.132.161a5.09,5.09,0,0,0,3.821,3.117c.17.028.344.028.519.069l-.033.028c-.429.638-1.915,1.111-2.608,1.345a9.519,9.519,0,0,1-3.962.5c-.212-.032-.255-.028-.316,0s0,.083.061.138a7.733,7.733,0,0,0,.825.459,13.212,13.212,0,0,0,2.651,1.029c4.759,1.281,10.122.34,13.679-3.118,2.83-2.713,3.773-6.455,3.773-10.206,0-.147.179-.225.283-.3a9.158,9.158,0,0,0,1.858-1.887.537.537,0,0,0,.113-.363h0C173.91,149.442,173.91,149.442,173.825,149.5Z" transform="translate(-150.616 -147.271)" fill="#f05e22"/>
</svg>
